<svg width="28" height="28" viewBox="0 0 28 28" fill="none" xmlns="http://www.w3.org/2000/svg">
<g id="circlefill/youtube_circle_fill">
<path id="Combined Shape" fill-rule="evenodd" clip-rule="evenodd" d="M14 28C21.732 28 28 21.732 28 14C28 6.26801 21.732 0 14 0C6.26801 0 0 6.26801 0 14C0 21.732 6.26801 28 14 28ZM21.0873 10.956C21.0873 10.956 20.9455 9.95378 20.5085 9.51372C20.01 8.99183 19.4585 8.9379 19.1467 8.90742C19.1125 8.90407 19.0811 8.901 19.0531 8.89763C17.0216 8.75 13.9716 8.75 13.9716 8.75H13.9659C13.9659 8.75 10.9159 8.75 8.88448 8.89763C8.85645 8.901 8.82515 8.90406 8.79097 8.9074L8.79084 8.90742C8.47904 8.9379 7.92752 8.99183 7.42899 9.51372C6.99205 9.95378 6.85303 10.956 6.85303 10.956C6.85303 10.956 6.70833 12.1314 6.70833 13.3096V14.4112C6.70833 15.5866 6.85303 16.7648 6.85303 16.7648C6.85303 16.7648 6.99489 17.767 7.42899 18.2071C7.88546 18.685 8.45975 18.755 8.82837 18.8L8.82853 18.8C8.90662 18.8095 8.97547 18.8179 9.03201 18.8289C10.1953 18.9396 13.9716 18.9737 13.9716 18.9737C13.9716 18.9737 17.0244 18.968 19.0559 18.8232C19.084 18.8198 19.1153 18.8167 19.1495 18.8134C19.4613 18.7829 20.0128 18.729 20.5114 18.2071C20.9483 17.767 21.0902 16.7648 21.0902 16.7648C21.0902 16.7648 21.2349 15.5894 21.2349 14.4112V13.3096C21.232 12.1342 21.0873 10.956 21.0873 10.956ZM12.4679 15.7484V11.6629L16.3917 13.7128L12.4679 15.7484Z" fill="#3C3C3C"/>
</g>
</svg>
