<svg width="28" height="28" viewBox="0 0 28 28" fill="none" xmlns="http://www.w3.org/2000/svg">
<g id="circlefill/pinterest_circle_fill">
<path id="Combined Shape" fill-rule="evenodd" clip-rule="evenodd" d="M14 28C21.732 28 28 21.732 28 14C28 6.26801 21.732 0 14 0C6.26801 0 0 6.26801 0 14C0 21.732 6.26801 28 14 28ZM14 7.175C10.2356 7.175 7.175 10.2356 7.175 14C7.175 17.7644 10.2356 20.825 14 20.825C17.7644 20.825 20.825 17.7644 20.825 14C20.825 10.2356 17.7644 7.175 14 7.175ZM14 19.9132C13.3895 19.9132 12.8029 19.8199 12.2484 19.6493C12.4884 19.2574 12.8509 18.6122 12.9842 18.1003C13.0562 17.8231 13.3521 16.6953 13.3521 16.6953C13.5441 17.0632 14.1093 17.3752 14.7065 17.3752C16.49 17.3752 17.7751 15.7356 17.7751 13.6961C17.7751 11.7419 16.1808 10.2809 14.1306 10.2809C11.5792 10.2809 10.2249 11.9951 10.2249 13.8587C10.2249 14.7251 10.6861 15.8049 11.4246 16.1488C11.5366 16.2021 11.5952 16.1781 11.6219 16.0688C11.6314 16.0267 11.6623 15.9025 11.6964 15.7656C11.7292 15.6336 11.7649 15.4899 11.7872 15.397C11.8005 15.3383 11.7952 15.285 11.7472 15.2264C11.5019 14.9304 11.3073 14.3839 11.3073 13.8773C11.3073 12.5737 12.2937 11.31 13.976 11.31C15.429 11.31 16.4447 12.2991 16.4447 13.7147C16.4447 15.3143 15.6369 16.4234 14.5865 16.4234C14.0053 16.4234 13.5708 15.9435 13.7121 15.3543C13.7726 15.1006 13.8532 14.84 13.9316 14.5866L13.9316 14.5866C14.0707 14.1372 14.2026 13.7107 14.2026 13.3868C14.2026 12.9336 13.96 12.555 13.4535 12.555C12.8589 12.555 12.3844 13.1682 12.3844 13.992C12.3844 14.5145 12.5603 14.8691 12.5603 14.8691C12.5603 14.8691 11.9738 17.3458 11.8672 17.8071C11.7472 18.3189 11.7952 19.0361 11.8458 19.5026C9.64638 18.6442 8.08676 16.506 8.08676 14C8.08676 10.7341 10.7341 8.08676 14 8.08676C17.2659 8.08676 19.9132 10.7341 19.9132 14C19.9132 17.2659 17.2659 19.9132 14 19.9132Z" fill="#3C3C3C"/>
</g>
</svg>
