<svg width="28" height="28" viewBox="0 0 28 28" fill="none" xmlns="http://www.w3.org/2000/svg">
<g id="circlefill/instagram_circle_fill">
<path id="Combined Shape" fill-rule="evenodd" clip-rule="evenodd" d="M14 28C21.732 28 28 21.732 28 14C28 6.26801 21.732 0 14 0C6.26801 0 0 6.26801 0 14C0 21.732 6.26801 28 14 28ZM13.9413 8.055C12.2966 8.055 12.0907 8.0621 11.4446 8.0905C10.8009 8.1189 10.3583 8.22303 9.97495 8.37212C9.57499 8.52832 9.23657 8.73421 8.90051 9.07263C8.56209 9.40869 8.3562 9.74711 8.20001 10.1447C8.05091 10.5304 7.94678 10.9706 7.91838 11.6143C7.88998 12.2628 7.88288 12.4687 7.88288 14.1135C7.88288 15.7582 7.88998 15.9641 7.91838 16.6102C7.94678 17.2539 8.05091 17.6965 8.20001 18.0799C8.3562 18.4798 8.56209 18.8182 8.90051 19.1543C9.23657 19.4903 9.57499 19.6986 9.97258 19.8524C10.3583 20.0015 10.7985 20.1057 11.4422 20.1341C12.0883 20.1625 12.2942 20.1696 13.939 20.1696C15.5838 20.1696 15.7896 20.1625 16.4357 20.1341C17.0794 20.1057 17.522 20.0015 17.9054 19.8524C18.303 19.6986 18.6414 19.4903 18.9774 19.1543C19.3135 18.8182 19.5218 18.4798 19.6756 18.0822C19.8247 17.6965 19.9288 17.2563 19.9572 16.6126C19.9856 15.9665 19.9927 15.7606 19.9927 14.1158C19.9927 12.471 19.9856 12.2652 19.9572 11.6191C19.9288 10.9754 19.8247 10.5328 19.6756 10.1494C19.5265 9.74711 19.3206 9.40869 18.9822 9.07263C18.6461 8.73658 18.3077 8.52832 17.9101 8.37449C17.5244 8.22539 17.0842 8.12126 16.4405 8.09286C15.792 8.0621 15.5861 8.055 13.9413 8.055ZM13.9413 9.14599C15.5601 9.14599 15.7518 9.15309 16.3884 9.18149C16.98 9.20753 17.2995 9.30692 17.5125 9.38975C17.7941 9.49862 17.9977 9.63114 18.2083 9.84177C18.4213 10.0548 18.5515 10.2559 18.6627 10.5375C18.7455 10.7505 18.8449 11.0724 18.8709 11.6617C18.8993 12.3007 18.9064 12.4923 18.9064 14.1087C18.9064 15.7251 18.8993 15.9192 18.8709 16.5558C18.8449 17.1474 18.7455 17.4669 18.6627 17.6799C18.5538 17.9615 18.4213 18.1651 18.2107 18.3757C17.9977 18.5887 17.7965 18.7188 17.5149 18.8301C17.3019 18.9129 16.98 19.0123 16.3908 19.0383C15.7518 19.0667 15.5601 19.0738 13.9437 19.0738C12.3273 19.0738 12.1333 19.0667 11.4967 19.0383C10.905 19.0123 10.5855 18.9129 10.3725 18.8301C10.0909 18.7212 9.88738 18.5887 9.67675 18.378C9.46376 18.1651 9.3336 17.9639 9.22237 17.6823C9.13954 17.4693 9.04014 17.1474 9.01411 16.5581C8.98571 15.9192 8.97861 15.7275 8.97861 14.1111C8.97861 12.4947 8.98571 12.3007 9.01411 11.664C9.04014 11.0724 9.13954 10.7529 9.22237 10.5399C9.33123 10.2583 9.46376 10.0548 9.67439 9.84414C9.88738 9.63114 10.0885 9.50098 10.3702 9.38975C10.5832 9.30692 10.905 9.20753 11.4943 9.18149C12.1309 9.15309 12.3226 9.14599 13.9413 9.14599ZM10.8293 14.1135C10.8293 12.3953 12.2232 11.0014 13.9413 11.0014C15.6595 11.0014 17.0534 12.3953 17.0534 14.1135C17.0534 15.8316 15.6595 17.2255 13.9413 17.2255C12.2232 17.2255 10.8293 15.8316 10.8293 14.1135ZM11.9226 14.1135C11.9226 15.2281 12.8267 16.1322 13.9413 16.1322C15.056 16.1322 15.96 15.2281 15.96 14.1135C15.96 12.9988 15.056 12.0948 13.9413 12.0948C12.8267 12.0948 11.9226 12.9988 11.9226 14.1135ZM17.1765 11.6049C17.5777 11.6049 17.903 11.2796 17.903 10.8783C17.903 10.4771 17.5777 10.1518 17.1765 10.1518C16.7752 10.1518 16.4499 10.4771 16.4499 10.8783C16.4499 11.2796 16.7752 11.6049 17.1765 11.6049Z" fill="#3C3C3C"/>
</g>
</svg>
