<svg width="28" height="28" viewBox="0 0 28 28" fill="none" xmlns="http://www.w3.org/2000/svg">
<g id="circlefill/facebook_circle_fill">
<path id="Combined Shape" fill-rule="evenodd" clip-rule="evenodd" d="M14 28C21.732 28 28 21.732 28 14C28 6.26801 21.732 0 14 0C6.26801 0 0 6.26801 0 14C0 21.732 6.26801 28 14 28ZM16.8489 12.1843L16.5153 14.3668H14.762V19.643C14.3789 19.7033 13.9863 19.7347 13.5863 19.7347C13.1863 19.7347 12.7937 19.7033 12.4106 19.643V14.3668H10.5V12.1843H12.4106V10.5209C12.4106 8.62858 13.5339 7.58333 15.2527 7.58333C16.076 7.58333 16.9371 7.7308 16.9371 7.7308V9.58889H15.9883C15.0535 9.58889 14.762 10.1709 14.762 10.768V12.1843H16.8489Z" fill="#3C3C3C"/>
</g>
</svg>
