<svg width="24" height="24" viewBox="0 0 24 24" fill="none" xmlns="http://www.w3.org/2000/svg">
<g id="24/Globe">
<path id="Ellipse 54" d="M16.5 12C16.5 14.7006 15.9516 17.1209 15.0883 18.8475C14.2101 20.604 13.0893 21.5 12 21.5C10.9107 21.5 9.78993 20.604 8.91168 18.8475C8.04839 17.1209 7.5 14.7006 7.5 12C7.5 9.29937 8.04839 6.87912 8.91168 5.15254C9.78993 3.39605 10.9107 2.5 12 2.5C13.0893 2.5 14.2101 3.39605 15.0883 5.15254C15.9516 6.87912 16.5 9.29937 16.5 12Z" stroke="#3C3C3C"/>
<path id="Oval" d="M21.5 12C21.5 17.2467 17.2467 21.5 12 21.5C6.75329 21.5 2.5 17.2467 2.5 12C2.5 6.75329 6.75329 2.5 12 2.5C17.2467 2.5 21.5 6.75329 21.5 12Z" stroke="#3C3C3C"/>
<path id="Rectangle 87" d="M2 12L22 12V12L2 12V12Z" stroke="#3C3C3C"/>
</g>
</svg>
