<svg width="28" height="28" viewBox="0 0 28 28" fill="none" xmlns="http://www.w3.org/2000/svg">
<g id="circlefill/linkedin_circle_fill">
<path id="Combined Shape" fill-rule="evenodd" clip-rule="evenodd" d="M14 28C21.732 28 28 21.732 28 14C28 6.26801 21.732 0 14 0C6.26801 0 0 6.26801 0 14C0 21.732 6.26801 28 14 28ZM15.1484 11.2166H12.7193V19.1048H15.2504V15.2975C15.2504 14.2936 15.4516 13.3215 16.7703 13.3215C18.0691 13.3215 18.0874 14.4697 18.0874 15.3623V19.1048H20.6194V14.8832C20.6194 12.8104 20.1452 11.2166 17.5812 11.2166C16.3484 11.2166 15.5211 11.8546 15.1831 12.4599H15.1484V11.2166ZM8.33038 19.1048V11.2166H10.9637V19.1048H8.33038ZM9.64706 10.3402C10.3743 10.3402 10.9637 9.75156 10.9637 9.02546C10.9637 8.29937 10.3743 7.71077 9.64706 7.71077C8.91987 7.71077 8.33038 8.29937 8.33038 9.02546C8.33038 9.75156 8.91987 10.3402 9.64706 10.3402Z" fill="#3C3C3C"/>
</g>
</svg>
